<svg width="25" height="25" viewBox="0 0 25 25" fill="none" xmlns="http://www.w3.org/2000/svg">
<path d="M7.34373 23.9583L10.4948 7.8125C10.5816 7.39583 10.7812 7.07465 11.0937 6.84896C11.4062 6.62326 11.7361 6.51042 12.0833 6.51042C12.4305 6.51042 12.7561 6.58854 13.0599 6.74479C13.3637 6.90104 13.6111 7.12674 13.8021 7.42188L14.8177 9.08854C15.1475 9.6441 15.6033 10.1389 16.1849 10.5729C16.7665 11.0069 17.4479 11.3455 18.2291 11.5885V9.63542H19.2708V23.9583H18.2291V13.1771C17.3437 12.9861 16.5104 12.6476 15.7291 12.1615C14.9479 11.6753 14.2535 11.0764 13.6458 10.3646L12.8906 14.1406L15.1041 16.25V23.9583H13.5416V17.6042L10.9375 15.1302L9.0104 23.9583H7.34373ZM7.78644 13.4635L5.83331 13.099C5.6597 13.0642 5.50779 12.9514 5.37758 12.7604C5.24737 12.5694 5.19963 12.3785 5.23435 12.1875L6.0156 8.09896C6.10241 7.59549 6.35415 7.2092 6.77081 6.9401C7.18748 6.67101 7.64755 6.57986 8.15102 6.66667L9.08852 6.84896L7.78644 13.4635ZM13.8021 5.36458C13.2812 5.36458 12.8342 5.17795 12.4609 4.80469C12.0877 4.43142 11.901 3.98438 11.901 3.46354C11.901 2.94271 12.0877 2.49566 12.4609 2.1224C12.8342 1.74913 13.2812 1.5625 13.8021 1.5625C14.3229 1.5625 14.7699 1.74913 15.1432 2.1224C15.5165 2.49566 15.7031 2.94271 15.7031 3.46354C15.7031 3.98438 15.5165 4.43142 15.1432 4.80469C14.7699 5.17795 14.3229 5.36458 13.8021 5.36458Z" fill="#3BBD48"/>
</svg>
