<svg width="15" height="15" viewBox="0 0 15 15" fill="none" xmlns="http://www.w3.org/2000/svg">
<path d="M3.46875 11.0156C4.125 10.5573 4.77604 10.2057 5.42188 9.96094C6.06771 9.71615 6.76042 9.59375 7.5 9.59375C8.23958 9.59375 8.9349 9.71615 9.58594 9.96094C10.237 10.2057 10.8906 10.5573 11.5469 11.0156C12.0052 10.4531 12.3307 9.88542 12.5234 9.3125C12.7161 8.73958 12.8125 8.13542 12.8125 7.5C12.8125 5.98958 12.3047 4.72656 11.2891 3.71094C10.2734 2.69531 9.01042 2.1875 7.5 2.1875C5.98958 2.1875 4.72656 2.69531 3.71094 3.71094C2.69531 4.72656 2.1875 5.98958 2.1875 7.5C2.1875 8.13542 2.28646 8.73958 2.48438 9.3125C2.68229 9.88542 3.01042 10.4531 3.46875 11.0156ZM7.49709 7.96875C6.89486 7.96875 6.38802 7.76205 5.97656 7.34866C5.5651 6.93526 5.35938 6.42745 5.35938 5.82522C5.35938 5.22299 5.56607 4.71615 5.97947 4.30469C6.39286 3.89323 6.90068 3.6875 7.50291 3.6875C8.10514 3.6875 8.61198 3.8942 9.02344 4.30759C9.4349 4.72099 9.64062 5.2288 9.64062 5.83103C9.64062 6.43326 9.43393 6.9401 9.02053 7.35156C8.60714 7.76302 8.09932 7.96875 7.49709 7.96875ZM7.50731 13.75C6.64827 13.75 5.83854 13.5859 5.07812 13.2578C4.31771 12.9297 3.65365 12.4818 3.08594 11.9141C2.51823 11.3464 2.07031 10.6835 1.74219 9.92553C1.41406 9.16755 1.25 8.35766 1.25 7.49584C1.25 6.63403 1.41406 5.82552 1.74219 5.07031C2.07031 4.3151 2.51823 3.65365 3.08594 3.08594C3.65365 2.51823 4.31649 2.07031 5.07447 1.74219C5.83245 1.41406 6.64234 1.25 7.50416 1.25C8.36597 1.25 9.17448 1.41406 9.92969 1.74219C10.6849 2.07031 11.3464 2.51823 11.9141 3.08594C12.4818 3.65365 12.9297 4.31527 13.2578 5.07081C13.5859 5.82635 13.75 6.63365 13.75 7.49269C13.75 8.35173 13.5859 9.16146 13.2578 9.92188C12.9297 10.6823 12.4818 11.3464 11.9141 11.9141C11.3464 12.4818 10.6847 12.9297 9.92919 13.2578C9.17365 13.5859 8.36635 13.75 7.50731 13.75ZM7.5 12.8125C8.07292 12.8125 8.63281 12.7292 9.17969 12.5625C9.72656 12.3958 10.2656 12.1042 10.7969 11.6875C10.2656 11.3125 9.72396 11.026 9.17188 10.8281C8.61979 10.6302 8.0625 10.5312 7.5 10.5312C6.9375 10.5312 6.38021 10.6302 5.82812 10.8281C5.27604 11.026 4.73438 11.3125 4.20312 11.6875C4.73438 12.1042 5.27344 12.3958 5.82031 12.5625C6.36719 12.7292 6.92708 12.8125 7.5 12.8125ZM7.5 7.03125C7.85417 7.03125 8.14323 6.91927 8.36719 6.69531C8.59115 6.47135 8.70312 6.18229 8.70312 5.82812C8.70312 5.47396 8.59115 5.1849 8.36719 4.96094C8.14323 4.73698 7.85417 4.625 7.5 4.625C7.14583 4.625 6.85677 4.73698 6.63281 4.96094C6.40885 5.1849 6.29688 5.47396 6.29688 5.82812C6.29688 6.18229 6.40885 6.47135 6.63281 6.69531C6.85677 6.91927 7.14583 7.03125 7.5 7.03125Z" fill="#464646" fill-opacity="0.6"/>
</svg>
