<svg width="25" height="25" viewBox="0 0 25 25" fill="none" xmlns="http://www.w3.org/2000/svg">
<path d="M4.6875 22.9166C4.27083 22.9166 3.90625 22.7603 3.59375 22.4478C3.28125 22.1353 3.125 21.7708 3.125 21.3541V5.20825C3.125 4.79159 3.28125 4.427 3.59375 4.1145C3.90625 3.802 4.27083 3.64575 4.6875 3.64575H6.38021V2.08325H8.07292V3.64575H16.9271V2.08325H18.6198V3.64575H20.3125C20.7292 3.64575 21.0937 3.802 21.4062 4.1145C21.7187 4.427 21.875 4.79159 21.875 5.20825V21.3541C21.875 21.7708 21.7187 22.1353 21.4062 22.4478C21.0937 22.7603 20.7292 22.9166 20.3125 22.9166H4.6875ZM4.6875 21.3541H20.3125V10.1562H4.6875V21.3541ZM4.6875 8.59367H20.3125V5.20825H4.6875V8.59367ZM12.5 14.5833C12.2049 14.5833 11.9575 14.4834 11.7578 14.2838C11.5582 14.0841 11.4583 13.8367 11.4583 13.5416C11.4583 13.2464 11.5582 12.9991 11.7578 12.7994C11.9575 12.5997 12.2049 12.4999 12.5 12.4999C12.7951 12.4999 13.0425 12.5997 13.2422 12.7994C13.4418 12.9991 13.5417 13.2464 13.5417 13.5416C13.5417 13.8367 13.4418 14.0841 13.2422 14.2838C13.0425 14.4834 12.7951 14.5833 12.5 14.5833ZM8.33333 14.5833C8.03819 14.5833 7.7908 14.4834 7.59115 14.2838C7.39149 14.0841 7.29167 13.8367 7.29167 13.5416C7.29167 13.2464 7.39149 12.9991 7.59115 12.7994C7.7908 12.5997 8.03819 12.4999 8.33333 12.4999C8.62847 12.4999 8.87587 12.5997 9.07552 12.7994C9.27517 12.9991 9.375 13.2464 9.375 13.5416C9.375 13.8367 9.27517 14.0841 9.07552 14.2838C8.87587 14.4834 8.62847 14.5833 8.33333 14.5833ZM16.6667 14.5833C16.3715 14.5833 16.1241 14.4834 15.9245 14.2838C15.7248 14.0841 15.625 13.8367 15.625 13.5416C15.625 13.2464 15.7248 12.9991 15.9245 12.7994C16.1241 12.5997 16.3715 12.4999 16.6667 12.4999C16.9618 12.4999 17.2092 12.5997 17.4089 12.7994C17.6085 12.9991 17.7083 13.2464 17.7083 13.5416C17.7083 13.8367 17.6085 14.0841 17.4089 14.2838C17.2092 14.4834 16.9618 14.5833 16.6667 14.5833ZM12.5 18.7499C12.2049 18.7499 11.9575 18.6501 11.7578 18.4504C11.5582 18.2508 11.4583 18.0034 11.4583 17.7083C11.4583 17.4131 11.5582 17.1657 11.7578 16.9661C11.9575 16.7664 12.2049 16.6666 12.5 16.6666C12.7951 16.6666 13.0425 16.7664 13.2422 16.9661C13.4418 17.1657 13.5417 17.4131 13.5417 17.7083C13.5417 18.0034 13.4418 18.2508 13.2422 18.4504C13.0425 18.6501 12.7951 18.7499 12.5 18.7499ZM8.33333 18.7499C8.03819 18.7499 7.7908 18.6501 7.59115 18.4504C7.39149 18.2508 7.29167 18.0034 7.29167 17.7083C7.29167 17.4131 7.39149 17.1657 7.59115 16.9661C7.7908 16.7664 8.03819 16.6666 8.33333 16.6666C8.62847 16.6666 8.87587 16.7664 9.07552 16.9661C9.27517 17.1657 9.375 17.4131 9.375 17.7083C9.375 18.0034 9.27517 18.2508 9.07552 18.4504C8.87587 18.6501 8.62847 18.7499 8.33333 18.7499ZM16.6667 18.7499C16.3715 18.7499 16.1241 18.6501 15.9245 18.4504C15.7248 18.2508 15.625 18.0034 15.625 17.7083C15.625 17.4131 15.7248 17.1657 15.9245 16.9661C16.1241 16.7664 16.3715 16.6666 16.6667 16.6666C16.9618 16.6666 17.2092 16.7664 17.4089 16.9661C17.6085 17.1657 17.7083 17.4131 17.7083 17.7083C17.7083 18.0034 17.6085 18.2508 17.4089 18.4504C17.2092 18.6501 16.9618 18.7499 16.6667 18.7499Z" fill="#3BBD48"/>
</svg>
