<svg width="15" height="15" viewBox="0 0 15 15" fill="none" xmlns="http://www.w3.org/2000/svg">
<path d="M2.8125 13.75C2.5625 13.75 2.34375 13.6562 2.15625 13.4688C1.96875 13.2812 1.875 13.0625 1.875 12.8125V3.125C1.875 2.875 1.96875 2.65625 2.15625 2.46875C2.34375 2.28125 2.5625 2.1875 2.8125 2.1875H3.82812V1.25H4.84375V2.1875H10.1562V1.25H11.1719V2.1875H12.1875C12.4375 2.1875 12.6562 2.28125 12.8438 2.46875C13.0312 2.65625 13.125 2.875 13.125 3.125V12.8125C13.125 13.0625 13.0312 13.2812 12.8438 13.4688C12.6562 13.6562 12.4375 13.75 12.1875 13.75H2.8125ZM2.8125 12.8125H12.1875V6.09375H2.8125V12.8125ZM2.8125 5.15625H12.1875V3.125H2.8125V5.15625ZM7.5 8.75C7.32292 8.75 7.17448 8.6901 7.05469 8.57031C6.9349 8.45052 6.875 8.30208 6.875 8.125C6.875 7.94792 6.9349 7.79948 7.05469 7.67969C7.17448 7.5599 7.32292 7.5 7.5 7.5C7.67708 7.5 7.82552 7.5599 7.94531 7.67969C8.0651 7.79948 8.125 7.94792 8.125 8.125C8.125 8.30208 8.0651 8.45052 7.94531 8.57031C7.82552 8.6901 7.67708 8.75 7.5 8.75ZM5 8.75C4.82292 8.75 4.67448 8.6901 4.55469 8.57031C4.4349 8.45052 4.375 8.30208 4.375 8.125C4.375 7.94792 4.4349 7.79948 4.55469 7.67969C4.67448 7.5599 4.82292 7.5 5 7.5C5.17708 7.5 5.32552 7.5599 5.44531 7.67969C5.5651 7.79948 5.625 7.94792 5.625 8.125C5.625 8.30208 5.5651 8.45052 5.44531 8.57031C5.32552 8.6901 5.17708 8.75 5 8.75ZM10 8.75C9.82292 8.75 9.67448 8.6901 9.55469 8.57031C9.4349 8.45052 9.375 8.30208 9.375 8.125C9.375 7.94792 9.4349 7.79948 9.55469 7.67969C9.67448 7.5599 9.82292 7.5 10 7.5C10.1771 7.5 10.3255 7.5599 10.4453 7.67969C10.5651 7.79948 10.625 7.94792 10.625 8.125C10.625 8.30208 10.5651 8.45052 10.4453 8.57031C10.3255 8.6901 10.1771 8.75 10 8.75ZM7.5 11.25C7.32292 11.25 7.17448 11.1901 7.05469 11.0703C6.9349 10.9505 6.875 10.8021 6.875 10.625C6.875 10.4479 6.9349 10.2995 7.05469 10.1797C7.17448 10.0599 7.32292 10 7.5 10C7.67708 10 7.82552 10.0599 7.94531 10.1797C8.0651 10.2995 8.125 10.4479 8.125 10.625C8.125 10.8021 8.0651 10.9505 7.94531 11.0703C7.82552 11.1901 7.67708 11.25 7.5 11.25ZM5 11.25C4.82292 11.25 4.67448 11.1901 4.55469 11.0703C4.4349 10.9505 4.375 10.8021 4.375 10.625C4.375 10.4479 4.4349 10.2995 4.55469 10.1797C4.67448 10.0599 4.82292 10 5 10C5.17708 10 5.32552 10.0599 5.44531 10.1797C5.5651 10.2995 5.625 10.4479 5.625 10.625C5.625 10.8021 5.5651 10.9505 5.44531 11.0703C5.32552 11.1901 5.17708 11.25 5 11.25ZM10 11.25C9.82292 11.25 9.67448 11.1901 9.55469 11.0703C9.4349 10.9505 9.375 10.8021 9.375 10.625C9.375 10.4479 9.4349 10.2995 9.55469 10.1797C9.67448 10.0599 9.82292 10 10 10C10.1771 10 10.3255 10.0599 10.4453 10.1797C10.5651 10.2995 10.625 10.4479 10.625 10.625C10.625 10.8021 10.5651 10.9505 10.4453 11.0703C10.3255 11.1901 10.1771 11.25 10 11.25Z" fill="#464646" fill-opacity="0.6"/>
</svg>
