<svg width="20" height="20" viewBox="0 0 20 20" fill="none" xmlns="http://www.w3.org/2000/svg">
<path d="M14.2857 19.5H5.71429C2.83471 19.5 0.5 17.1653 0.5 14.2857V5.71429C0.5 2.83471 2.83471 0.5 5.71429 0.5H14.2857C17.1653 0.5 19.5 2.83471 19.5 5.71429V14.2857C19.5 17.1653 17.1653 19.5 14.2857 19.5Z" fill="#8EE296" stroke="black" stroke-miterlimit="10"/>
<path d="M14.2618 9.99994C14.2618 12.3537 12.3537 14.2618 9.99994 14.2618C7.64616 14.2618 5.73804 12.3537 5.73804 9.99994C5.73804 7.64616 7.64616 5.73804 9.99994 5.73804C12.3537 5.73804 14.2618 7.64616 14.2618 9.99994Z" stroke="black" stroke-miterlimit="10"/>
<path d="M15.7143 5.23801C16.2403 5.23801 16.6667 4.81162 16.6667 4.28563C16.6667 3.75965 16.2403 3.33325 15.7143 3.33325C15.1884 3.33325 14.762 3.75965 14.762 4.28563C14.762 4.81162 15.1884 5.23801 15.7143 5.23801Z" fill="black"/>
</svg>
