<svg width="15" height="15" viewBox="0 0 15 15" fill="none" xmlns="http://www.w3.org/2000/svg">
<path d="M7.50139 7.34375C7.80255 7.34375 8.0599 7.23652 8.27344 7.02205C8.48698 6.80759 8.59375 6.54978 8.59375 6.24861C8.59375 5.94745 8.48652 5.6901 8.27205 5.47656C8.05759 5.26302 7.79978 5.15625 7.49861 5.15625C7.19745 5.15625 6.9401 5.26348 6.72656 5.47795C6.51302 5.69241 6.40625 5.95022 6.40625 6.25139C6.40625 6.55255 6.51348 6.8099 6.72795 7.02344C6.94241 7.23698 7.20022 7.34375 7.50139 7.34375ZM7.5 12.5156C8.88542 11.2552 9.90885 10.112 10.5703 9.08594C11.2318 8.0599 11.5625 7.15625 11.5625 6.375C11.5625 5.14802 11.1704 4.14336 10.3861 3.36102C9.60178 2.57867 8.63976 2.1875 7.5 2.1875C6.36024 2.1875 5.39822 2.57867 4.61394 3.36102C3.82965 4.14336 3.4375 5.14802 3.4375 6.375C3.4375 7.15625 3.77604 8.0599 4.45312 9.08594C5.13021 10.112 6.14583 11.2552 7.5 12.5156ZM7.5 13.75C5.82292 12.3229 4.57031 10.9974 3.74219 9.77344C2.91406 8.54948 2.5 7.41667 2.5 6.375C2.5 4.8125 3.0026 3.56771 4.00781 2.64062C5.01302 1.71354 6.17708 1.25 7.5 1.25C8.82292 1.25 9.98698 1.71354 10.9922 2.64062C11.9974 3.56771 12.5 4.8125 12.5 6.375C12.5 7.41667 12.0859 8.54948 11.2578 9.77344C10.4297 10.9974 9.17708 12.3229 7.5 13.75Z" fill="#464646" fill-opacity="0.6"/>
</svg>
