<svg width="25" height="25" viewBox="0 0 25 25" fill="none" xmlns="http://www.w3.org/2000/svg">
<path d="M12.5023 12.2396C13.0043 12.2396 13.4332 12.0609 13.7891 11.7035C14.145 11.346 14.3229 10.9163 14.3229 10.4144C14.3229 9.91246 14.1442 9.48355 13.7868 9.12765C13.4293 8.77174 12.9996 8.59379 12.4977 8.59379C11.9958 8.59379 11.5669 8.77251 11.211 9.12996C10.8551 9.48739 10.6771 9.91708 10.6771 10.419C10.6771 10.921 10.8558 11.3499 11.2133 11.7058C11.5707 12.0617 12.0004 12.2396 12.5023 12.2396ZM12.5 20.8594C14.809 18.7587 16.5148 16.8533 17.6172 15.1433C18.7196 13.4332 19.2709 11.9271 19.2709 10.625C19.2709 8.58008 18.6173 6.90564 17.3101 5.60173C16.003 4.29783 14.3996 3.64587 12.5 3.64587C10.6004 3.64587 8.99705 4.29783 7.68992 5.60173C6.38276 6.90564 5.72919 8.58008 5.72919 10.625C5.72919 11.9271 6.29342 13.4332 7.4219 15.1433C8.55037 16.8533 10.2431 18.7587 12.5 20.8594ZM12.5 22.9167C9.70488 20.5382 7.61721 18.329 6.237 16.2891C4.85679 14.2492 4.16669 12.3612 4.16669 10.625C4.16669 8.02087 5.00436 5.94622 6.67971 4.40108C8.35506 2.85594 10.2952 2.08337 12.5 2.08337C14.7049 2.08337 16.645 2.85594 18.3203 4.40108C19.9957 5.94622 20.8334 8.02087 20.8334 10.625C20.8334 12.3612 20.1432 14.2492 18.763 16.2891C17.3828 18.329 15.2952 20.5382 12.5 22.9167Z" fill="#3BBD48"/>
</svg>
