<svg width="65" height="16" viewBox="0 0 65 16" fill="none" xmlns="http://www.w3.org/2000/svg">
<path d="M21.24 10.88C19.744 11.04 18.424 11.12 17.28 11.12C16.736 11.12 16.3 10.956 15.972 10.628C15.644 10.3 15.48 9.864 15.48 9.32V6.56C15.48 5.96 15.648 5.492 15.984 5.156C16.328 4.812 16.8 4.64 17.4 4.64H21.24V6.26H18.06C17.74 6.26 17.58 6.42 17.58 6.74V9.08C17.58 9.2 17.62 9.3 17.7 9.38C17.78 9.46 17.88 9.5 18 9.5C18.72 9.5 19.8 9.44 21.24 9.32V10.88ZM24.7177 9.44C25.1417 9.44 25.6217 9.36 26.1577 9.2V8.48H24.4177C24.2977 8.48 24.1977 8.52 24.1177 8.6C24.0377 8.68 23.9977 8.78 23.9977 8.9V9.02C23.9977 9.14 24.0377 9.24 24.1177 9.32C24.1977 9.4 24.2977 9.44 24.4177 9.44H24.7177ZM22.4977 4.76C23.9617 4.6 25.2817 4.52 26.4577 4.52C27.0017 4.52 27.4377 4.684 27.7657 5.012C28.0937 5.34 28.2577 5.776 28.2577 6.32V11H26.3977L26.2777 10.4C25.9017 10.648 25.5137 10.832 25.1137 10.952C24.7217 11.064 24.3897 11.12 24.1177 11.12H23.6977C23.1537 11.12 22.7177 10.956 22.3897 10.628C22.0617 10.3 21.8977 9.864 21.8977 9.32V8.78C21.8977 8.236 22.0617 7.8 22.3897 7.472C22.7177 7.144 23.1537 6.98 23.6977 6.98H26.1577V6.5C26.1577 6.38 26.1177 6.28 26.0377 6.2C25.9577 6.12 25.8577 6.08 25.7377 6.08C25.2177 6.08 24.6417 6.104 24.0097 6.152C23.3857 6.2 22.8817 6.236 22.4977 6.26V4.76ZM33.5944 4.52C34.2424 4.52 34.7424 4.76 35.0944 5.24C35.4624 4.992 35.8584 4.812 36.2824 4.7C36.7144 4.58 37.0984 4.52 37.4344 4.52H37.5544C38.0984 4.52 38.5344 4.684 38.8624 5.012C39.1904 5.34 39.3544 5.776 39.3544 6.32V11H37.2544V6.68C37.2544 6.56 37.2144 6.46 37.1344 6.38C37.0544 6.3 36.9544 6.26 36.8344 6.26H36.7744C36.4144 6.26 35.9544 6.34 35.3944 6.5V11H33.2944V6.68C33.2944 6.56 33.2544 6.46 33.1744 6.38C33.0944 6.3 32.9944 6.26 32.8744 6.26H32.8144C32.4544 6.26 31.9944 6.34 31.4344 6.5V11H29.3344V4.64H31.1944L31.3144 5.24C31.6904 4.992 32.0744 4.812 32.4664 4.7C32.8664 4.58 33.2024 4.52 33.4744 4.52H33.5944ZM43.972 6.26C43.548 6.26 43.068 6.34 42.532 6.5V9.38H44.332C44.652 9.38 44.812 9.22 44.812 8.9V6.68C44.812 6.56 44.772 6.46 44.692 6.38C44.612 6.3 44.512 6.26 44.392 6.26H43.972ZM42.532 11V13.04H40.432V4.64H42.292L42.412 5.24C42.788 4.992 43.172 4.812 43.564 4.7C43.964 4.58 44.3 4.52 44.572 4.52H45.112C45.656 4.52 46.092 4.684 46.42 5.012C46.748 5.34 46.912 5.776 46.912 6.32V9.08C46.912 9.68 46.74 10.152 46.396 10.496C46.06 10.832 45.592 11 44.992 11H42.532ZM50.4506 6.02C50.1306 6.02 49.9706 6.18 49.9706 6.5V7.16H52.0106V6.5C52.0106 6.18 51.8506 6.02 51.5306 6.02H50.4506ZM53.8706 10.88C52.3266 11.04 50.9266 11.12 49.6706 11.12C49.1266 11.12 48.6906 10.956 48.3626 10.628C48.0346 10.3 47.8706 9.864 47.8706 9.32V6.44C47.8706 5.84 48.0386 5.372 48.3746 5.036C48.7186 4.692 49.1906 4.52 49.7906 4.52H52.1906C52.7906 4.52 53.2586 4.692 53.5946 5.036C53.9386 5.372 54.1106 5.84 54.1106 6.44V8.66H49.9706V9.14C49.9706 9.26 50.0106 9.36 50.0906 9.44C50.1706 9.52 50.2706 9.56 50.3906 9.56C51.1826 9.56 52.3426 9.5 53.8706 9.38V10.88ZM58.8459 6.38C58.3419 6.38 57.8219 6.5 57.2859 6.74V11H55.1859V4.64H57.0459L57.1659 5.42C57.8539 4.82 58.5739 4.52 59.3259 4.52H59.8659V6.38H58.8459Z" fill="black"/>
<path d="M7.43301 3.75L11.7631 11.25C11.9556 11.5833 11.715 12 11.3301 12H2.66987C2.28497 12 2.04441 11.5833 2.23686 11.25L6.56699 3.75C6.75944 3.41667 7.24056 3.41667 7.43301 3.75Z" stroke="black"/>
<path d="M9.43301 3.75L12.8971 9.75C13.0896 10.0833 12.849 10.5 12.4641 10.5H5.5359C5.151 10.5 4.91044 10.0833 5.10289 9.75L8.56699 3.75C8.75944 3.41667 9.24056 3.41667 9.43301 3.75Z" stroke="#3BBD48"/>
</svg>
