<svg width="25" height="25" viewBox="0 0 25 25" fill="none" xmlns="http://www.w3.org/2000/svg">
<path d="M3.64581 20.8333C3.22915 20.8333 2.86456 20.677 2.55206 20.3645C2.23956 20.052 2.08331 19.6875 2.08331 19.2708V5.72913C2.08331 5.31246 2.23956 4.94788 2.55206 4.63538C2.86456 4.32288 3.22915 4.16663 3.64581 4.16663H21.3541C21.7708 4.16663 22.1354 4.32288 22.4479 4.63538C22.7604 4.94788 22.9166 5.31246 22.9166 5.72913V19.2708C22.9166 19.6875 22.7604 20.052 22.4479 20.3645C22.1354 20.677 21.7708 20.8333 21.3541 20.8333H3.64581ZM12.5 12.9687L3.64581 7.16142V19.2708H21.3541V7.16142L12.5 12.9687ZM12.5 11.4062L21.25 5.72913H3.77602L12.5 11.4062ZM3.64581 7.16142V5.72913V19.2708V7.16142Z" fill="#F3AA3B"/>
</svg>
