<svg width="20" height="20" viewBox="0 0 20 20" fill="none" xmlns="http://www.w3.org/2000/svg">
<path d="M19.5 10C19.5 15.2467 15.2467 19.5 10 19.5C4.75329 19.5 0.5 15.2467 0.5 10C0.5 4.75329 4.75329 0.5 10 0.5C15.2467 0.5 19.5 4.75329 19.5 10Z" fill="#8EE296" stroke="black" stroke-miterlimit="10"/>
<path d="M14.131 5.92496C14.256 5.92496 14.3678 5.94541 14.4623 5.99132C14.6773 6.09451 14.7869 6.32496 14.7537 6.67269C14.6437 7.81951 13.7514 13.6404 13.5614 14.2241C13.3987 14.7231 13.2273 15.1522 12.901 15.1522C12.5746 15.1522 12.2182 15.0386 11.8669 14.7872C11.5155 14.5363 9.18232 12.9713 8.85823 12.7672C8.57413 12.5881 8.27368 12.1413 8.69686 11.7095C9.0455 11.3541 11.69 8.78723 11.916 8.56132C12.0841 8.39269 12.005 8.18951 11.84 8.18951C11.7832 8.18951 11.716 8.2136 11.6455 8.27132C11.3691 8.49723 7.51595 11.0754 7.18232 11.2827C6.96141 11.42 6.61959 11.5191 6.26459 11.5191C6.11322 11.5191 5.95959 11.5009 5.81232 11.4604C5.29959 11.3191 4.43186 11.0559 4.08732 10.9331C3.75595 10.815 3.63595 10.7013 3.63595 10.4986C3.63595 10.2104 4.04232 10.0118 4.47095 9.82951C4.92368 9.63723 12.7578 6.31041 13.3705 6.08996C13.6541 5.98723 13.9132 5.92496 14.131 5.92496ZM14.131 5.01587C13.82 5.01587 13.4705 5.08769 13.0619 5.23496C12.4273 5.4636 4.96413 8.63269 4.11504 8.99314C3.62959 9.19951 2.72595 9.5836 2.72595 10.4991C2.72595 11.1059 3.08095 11.54 3.78095 11.79C4.15732 11.9241 5.05141 12.1945 5.57004 12.3372C5.79004 12.3977 6.02368 12.4286 6.26413 12.4286C6.73459 12.4286 7.20777 12.3113 7.57868 12.1045C7.5755 12.1809 7.57822 12.2581 7.58732 12.3354C7.64322 12.8127 7.93732 13.2618 8.37368 13.5368C8.65913 13.7168 10.9905 15.2791 11.3387 15.5272C11.8278 15.8768 12.3682 16.0613 12.901 16.0613C13.9191 16.0613 14.2614 15.0104 14.426 14.5054C14.6646 13.7722 15.5578 7.81041 15.6587 6.75905C15.7273 6.0386 15.4269 5.44496 14.855 5.17132C14.641 5.06814 14.3969 5.01587 14.131 5.01587Z" fill="black"/>
</svg>
